<?xml version="1.0" standalone="no"?>
<!DOCTYPE svg PUBLIC "-//W3C//DTD SVG 20010904//EN"
 "http://www.w3.org/TR/2001/REC-SVG-20010904/DTD/svg10.dtd">
<svg version="1.0" xmlns="http://www.w3.org/2000/svg"
 width="260.000000pt" height="260.000000pt" viewBox="0 0 260.000000 260.000000"
 preserveAspectRatio="xMidYMid meet">
<metadata>
Created by potrace 1.14, written by Peter Selinger 2001-2017
</metadata>
<g transform="translate(0.000000,260.000000) scale(0.100000,-0.100000)"
fill="#000000" stroke="none">
<path d="M2349 2281 c-19 -10 -47 -35 -64 -55 l-30 -38 -3 -591 c-3 -662 -4
-652 65 -704 36 -28 44 -31 103 -39 48 -7 117 30 152 81 l27 40 -2 605 c-2
676 2 638 -73 690 -46 31 -128 36 -175 11z"/>
<path d="M851 1932 c-19 -9 -48 -34 -65 -55 l-31 -39 -2 -627 c-2 -481 0 -634
10 -660 19 -50 77 -98 130 -106 61 -9 102 1 143 37 66 58 64 37 64 707 0 367
-4 620 -10 641 -11 41 -61 94 -103 109 -42 16 -97 13 -136 -7z"/>
<path d="M1612 1474 c-43 -17 -88 -65 -101 -107 -8 -24 -11 -184 -9 -538 l3
-504 25 -37 c73 -109 234 -103 298 10 22 40 22 40 22 539 0 522 -2 545 -44
591 -46 51 -133 72 -194 46z"/>
<path d="M117 1126 c-48 -18 -74 -41 -98 -88 -17 -33 -19 -61 -19 -240 0 -112
5 -219 10 -240 13 -46 77 -105 125 -114 85 -16 162 25 197 103 18 40 19 63 16
256 -3 180 -6 217 -21 245 -37 68 -135 104 -210 78z"/>
</g>
</svg>
